<?xml version="1.0" encoding="UTF-8" standalone="no"?>
<!-- Created with Inkscape (http://www.inkscape.org/) -->

<svg
   width="375.90228mm"
   height="366.70612mm"
   viewBox="0 0 375.90228 366.70612"
   version="1.1"
   id="svg5"
   inkscape:version="1.1.2 (0a00cf5339, 2022-02-04)"
   sodipodi:docname="ihub.svg"
   xmlns:inkscape="http://www.inkscape.org/namespaces/inkscape"
   xmlns:sodipodi="http://sodipodi.sourceforge.net/DTD/sodipodi-0.dtd"
   xmlns="http://www.w3.org/2000/svg"
   xmlns:svg="http://www.w3.org/2000/svg">
  <sodipodi:namedview
     id="namedview7"
     pagecolor="#ffffff"
     bordercolor="#666666"
     borderopacity="1.0"
     inkscape:pageshadow="2"
     inkscape:pageopacity="0.0"
     inkscape:pagecheckerboard="0"
     inkscape:document-units="mm"
     showgrid="false"
     fit-margin-top="0"
     fit-margin-left="0"
     fit-margin-right="0"
     fit-margin-bottom="0"
     inkscape:zoom="0.27972783"
     inkscape:cx="807.92818"
     inkscape:cy="895.51332"
     inkscape:window-width="1920"
     inkscape:window-height="1139"
     inkscape:window-x="0"
     inkscape:window-y="0"
     inkscape:window-maximized="1"
     inkscape:current-layer="layer1" />
  <defs
     id="defs2" />
  <g
     inkscape:label="Capa 1"
     inkscape:groupmode="layer"
     id="layer1"
     transform="translate(367.22081,34.607628)">
    <path
       style="fill:#000000;stroke-width:0.264583"
       d="m -238.11024,331.84218 c -1.56951,-0.34584 -6.03306,-1.94254 -11.1125,-3.97515 -16.26854,-6.5101 -31.7227,-15.39372 -45.68944,-26.26395 -11.82084,-9.20009 -24.16151,-21.62926 -33.38674,-33.62621 -29.83794,-38.80268 -43.19185,-86.92476 -37.72286,-135.93769 5.7287,-51.340243 32.77258,-98.34732 74.46571,-129.4346443 32.46257,-24.2048087 71.7039,-37.2214987 112.18333,-37.2121587 37.1556,0.009 72.8695,10.71082 103.716675,31.0803397 46.4412,30.6668483 77.05886,80.5572323 83.19696,135.5664633 0.8769,7.85889 1.14223,12.79073 1.14056,21.20097 -0.003,8.51839 -0.28273,13.81501 -1.139,21.46555 -5.73215,51.21623 -32.61265,98.09241 -74.14882,129.30626 -14.02535,10.53986 -30.32689,19.46169 -46.951985,25.69691 -5.24558,1.96734 -6.85173,2.38961 -9.08899,2.38961 -3.90951,0 -7.07946,-1.82811 -8.62404,-4.97348 l -0.74094,-1.50881 -0.0348,-28.575 c -0.019,-15.71625 -0.10906,-29.82515 -0.19984,-31.35312 -0.65702,-11.05797 -4.49358,-21.04496 -10.52293,-27.39232 l -1.84208,-1.93923 1.14046,-0.14894 c 15.9544,-2.08362 25.74731,-4.39555 35.95748,-8.48892 30.491595,-12.22441 46.219225,-36.82602 48.374725,-75.66914 0.31443,-5.66607 0.13796,-14.32149 -0.37491,-18.38854 -1.85097,-14.678 -7.36814,-27.30433 -16.82946,-38.515016 l -1.80168,-2.13481 0.90567,-2.792962 c 2.07446,-6.39745 2.92103,-12.945358 2.69573,-20.850963 -0.24085,-8.452085 -1.74207,-16.076467 -4.72845,-24.015107 -0.98157,-2.609355 -0.88479,-2.563638 -5.3795,-2.540577 -10.89999,0.05592 -25.970345,6.004343 -43.159875,17.035659 l -4.00153,2.567963 -3.95613,-1.007787 c -8.21108,-2.091693 -17.86316,-3.729048 -27.33144,-4.636439 -5.10143,-0.488895 -21.43146,-0.712711 -26.45833,-0.362633 -11.5778,0.806297 -22.17134,2.449124 -32.20252,4.993905 l -4.02436,1.020937 -3.38397,-2.179918 c -14.53322,-9.362199 -27.52976,-15.101377 -38.31833,-16.921102 -3.61337,-0.609473 -8.95194,-0.654719 -9.73445,-0.0825 -1.02253,0.747734 -3.85728,10.290273 -4.91019,16.529132 -1.64743,9.761503 -1.16221,20.408022 1.30564,28.648471 0.4576,1.527969 0.962,3.216675 1.12088,3.752676 0.27668,0.933447 0.24471,1.022725 -0.75829,2.116666 -7.649,8.342655 -14.09544,21.306755 -16.5108,33.204085 -1.34461,6.62315 -1.66925,10.80223 -1.50709,19.39949 0.20428,10.83083 1.1816,19.23851 3.21836,27.68725 7.9193,32.85017 29.19162,51.85534 66.41984,59.34098 3.38566,0.68077 14.40492,2.39747 15.40576,2.40006 0.18143,0 -0.4536,0.80455 -1.41115,1.78681 -4.57851,4.69657 -7.92136,11.6567 -9.60329,19.99488 l -0.6985,3.46277 -2.51053,1.02515 c -6.10129,2.4914 -12.53768,3.74962 -19.04701,3.7234 -4.747,-0.019 -8.0014,-0.52909 -11.90625,-1.86576 -8.05556,-2.75754 -15.21142,-8.84142 -20.63403,-17.54304 -3.59236,-5.76458 -8.60515,-11.31898 -13.10654,-14.52261 -2.81252,-2.00165 -6.8404,-3.99582 -9.78339,-4.84365 -1.84758,-0.53226 -2.68848,-0.60854 -6.61458,-0.59989 -4.04577,0.009 -4.65024,0.0704 -6.01324,0.61206 -1.66653,0.66226 -2.58572,1.59986 -2.58572,2.63748 0,2.12685 3.16997,5.47428 8.05352,8.50442 3.48581,2.16289 6.09931,4.56938 8.91852,8.21219 4.42048,5.71183 8.38018,12.45793 11.33695,19.31458 2.51259,5.8266 4.3021,8.60375 7.77309,12.06318 6.39159,6.37032 14.36751,9.82247 25.96271,11.23728 6.1177,0.74644 16.99093,0.27789 25.6209,-1.10408 1.86775,-0.29909 3.44445,-0.49525 3.5038,-0.43591 0.0594,0.0594 0.13854,8.49342 0.17597,18.74237 l 0.0681,18.63445 -0.87307,1.77755 c -1.52225,3.09933 -4.107,4.64301 -8.10173,4.83865 -1.17573,0.0576 -2.61395,-2.7e-4 -3.19603,-0.12854 z"
       id="path39"
       sodipodi:nodetypes="sssssscssccssssccsscssssscssssscsssscssssssssssscsscscssssssssssssssscssss" />
  </g>
</svg>
